<svg width="39" height="39" viewBox="0 0 39 39" fill="none" xmlns="http://www.w3.org/2000/svg">
<g clip-path="url(#clip0_36_190)">
<path d="M19.5 0C15.6433 0 11.8731 1.14366 8.66639 3.28634C5.45963 5.42903 2.96027 8.47451 1.48436 12.0377C0.008449 15.6008 -0.377716 19.5216 0.374696 23.3043C1.12711 27.0869 2.9843 30.5615 5.71143 33.2886C8.43855 36.0157 11.9131 37.8729 15.6957 38.6253C19.4784 39.3777 23.3992 38.9916 26.9623 37.5157C30.5255 36.0397 33.571 33.5404 35.7137 30.3336C37.8563 27.1269 39 23.3567 39 19.5C39 14.3283 36.9455 9.36838 33.2886 5.71142C29.6316 2.05446 24.6717 0 19.5 0ZM9.38769 5.6399C9.38769 5.6399 26.6018 5.66129 27.3352 5.6399C29.5746 5.75565 29.4739 9.40403 27.3352 9.37258C26.681 9.34113 13.1619 9.37258 13.1619 9.37258C13.1619 9.37258 13.0788 22.8339 13.1619 22.8339C13.2449 22.8339 22.0728 22.771 24.0542 22.8024C26.0357 22.8817 26.2244 26.2935 24.1486 26.6081H9.38769V5.6399ZM24.4065 33.6532C19.5629 33.7035 9.43549 33.6532 9.43549 33.6532V29.879C9.43549 29.879 22.3357 30.1583 24.5323 30.0048C27.373 29.8073 29.25 27.4258 29.1393 24.3851C29.0185 21.2613 27.4862 19.1855 24.6581 19.0597C22.0816 18.9427 16.8581 19.0597 16.8581 19.0597V15.4113C16.8581 15.4113 22.9597 15.3383 24.4065 15.4113C29.8816 15.6881 32.9286 20.3177 32.8883 24.3851C32.8355 28.9594 30.5018 33.5903 24.4065 33.6532Z" fill="#9CBCDA"/>
</g>
<defs>
<clipPath id="clip0_36_190">
<rect width="39" height="39" fill="white"/>
</clipPath>
</defs>
</svg>
