<svg width="42" height="43" viewBox="0 0 42 43" fill="none" xmlns="http://www.w3.org/2000/svg">
<g style="mix-blend-mode:luminosity" clip-path="url(#clip0_32_210)">
<path d="M21 42.2097C32.598 42.2097 42 32.853 42 21.3109C42 9.76884 32.598 0.412109 21 0.412109C9.40204 0.412109 0 9.76884 0 21.3109C0 32.853 9.40204 42.2097 21 42.2097Z" fill="#34AADF"/>
<path d="M8.92095 21.5957L8.92098 21.5958L8.92898 21.5925L8.73993 21.1296C8.92898 21.5925 8.92902 21.5925 8.92911 21.5925L8.92947 21.5923L8.9309 21.5917L8.93662 21.5894L8.95923 21.5802L9.04782 21.544L9.38733 21.4053L10.6266 20.8988C11.668 20.4731 13.0944 19.8899 14.6345 19.2594C17.7145 17.9986 21.251 16.5486 23.073 15.793L23.073 15.7931L23.08 15.79C23.773 15.4902 25.3008 14.8579 26.6603 14.2986C27.3389 14.0194 27.9741 13.759 28.4395 13.5684L28.9946 13.3413L29.1472 13.279L29.187 13.2627L29.1938 13.2599L29.204 13.2562C29.2155 13.2521 29.2339 13.2457 29.2583 13.2379C29.3072 13.2222 29.3785 13.2011 29.4639 13.1811C29.6406 13.1398 29.8503 13.1101 30.0382 13.1263C30.2256 13.1426 30.3352 13.1983 30.3984 13.2722C30.46 13.3442 30.5549 13.5239 30.5164 13.9581L30.5164 13.9581L30.5158 13.9665C30.4735 14.5552 30.2143 16.2283 29.8902 18.3209C29.7633 19.1402 29.6264 20.0237 29.4887 20.9316C29.1246 23.1963 28.7454 25.5662 28.4571 27.3702C28.313 28.2725 28.1916 29.0332 28.1062 29.5684L28.0069 30.1914L27.9806 30.3564L27.9738 30.3988L27.9721 30.4095L27.9717 30.4122L27.9716 30.4129L27.9716 30.4131L28.4653 30.4918L27.9715 30.4131L27.9688 30.4306L27.9674 30.4464L27.9674 30.4465L27.9674 30.4466L27.9673 30.4471L27.9673 30.4476L27.9672 30.4479L27.9668 30.4521C27.9661 30.4581 27.9648 30.4687 27.9628 30.4833C27.9588 30.5125 27.9518 30.557 27.9404 30.6121C27.9175 30.724 27.8785 30.8719 27.815 31.0222C27.6829 31.3353 27.4878 31.568 27.1982 31.6358C27.0444 31.6718 26.8294 31.6645 26.5584 31.6016C26.2927 31.54 26.0073 31.4331 25.7304 31.3059C25.171 31.049 24.7056 30.7372 24.589 30.6443L24.5828 30.6394L24.5765 30.6346C24.5096 30.5848 24.2498 30.4159 23.8943 30.1848C23.8359 30.1468 23.7749 30.1072 23.7118 30.0661C23.2493 29.7653 22.6404 29.3681 21.9901 28.9355C20.6815 28.0647 19.2347 27.069 18.4707 26.4259C18.2969 26.2774 18.1737 26.1039 18.148 25.9432C18.1295 25.8276 18.1413 25.5957 18.5364 25.2516L18.5365 25.2517L18.545 25.2439C20.7341 23.247 23.3493 20.7655 24.9336 19.1889C25.1494 18.9741 25.3612 18.6934 25.5084 18.4207C25.5818 18.2846 25.6482 18.134 25.6866 17.9824C25.7215 17.8443 25.7525 17.6314 25.665 17.4201C25.5573 17.1596 25.3261 17.0264 25.0897 16.9969C24.8859 16.9715 24.6713 17.0184 24.4701 17.0873C24.0583 17.2284 23.4902 17.5384 22.7227 18.0579L22.7227 18.0579L22.7198 18.0598C20.568 19.5378 18.4308 20.9708 16.8312 22.0346C16.0315 22.5664 15.3664 23.0058 14.9012 23.3122C14.6687 23.4654 14.4861 23.5853 14.3618 23.6669L14.2199 23.7599L14.1836 23.7837L14.1828 23.7842C14.1802 23.7857 14.1764 23.7877 14.1715 23.7902C14.1543 23.799 14.1231 23.8141 14.0781 23.8322C13.9883 23.8684 13.8435 23.9167 13.645 23.9518C13.2509 24.0214 12.6317 24.0408 11.7963 23.7914L11.7962 23.7914C10.8921 23.5215 9.91067 23.206 9.15383 22.9574C8.77575 22.8332 8.45439 22.726 8.22765 22.6499C8.11429 22.6118 8.0246 22.5815 7.96334 22.5607L7.93942 22.5526C7.92118 22.5379 7.89923 22.5188 7.87713 22.4961C7.81257 22.43 7.78901 22.3782 7.78511 22.3527C7.78404 22.3458 7.78326 22.3358 7.79026 22.3164C7.79816 22.2945 7.8212 22.247 7.88848 22.1773C8.0297 22.0312 8.32884 21.8257 8.92095 21.5957ZM7.97672 22.5804C7.97672 22.5804 7.97589 22.5799 7.97434 22.5788L7.97533 22.5795L7.97666 22.5804L7.97672 22.5804Z" fill="white" stroke="black"/>
</g>
<defs>
<clipPath id="clip0_32_210">
<rect width="42" height="41.7976" fill="white" transform="translate(0 0.412109)"/>
</clipPath>
</defs>
</svg>
