<svg width="53" height="50" viewBox="0 0 53 50" fill="none" xmlns="http://www.w3.org/2000/svg">
<g style="mix-blend-mode:luminosity">
<path d="M17.4234 21.556V20.0646C16.7872 19.9826 16.1446 19.9377 15.5006 19.9302C9.26525 19.9194 3.74497 23.2075 1.8725 28.0474C3.68357e-05 32.8873 2.21027 38.1558 7.3283 41.0537C5.45151 39.4192 4.19618 37.3775 3.71386 35.1752C3.23153 32.9729 3.54283 30.704 4.61016 28.6425C5.67749 26.581 7.45524 24.8149 9.72882 23.5575C12.0024 22.3 14.6746 21.605 17.4229 21.5562L17.4234 21.556Z" fill="#25F4EE"/>
<path d="M17.769 38.45C21.2552 38.4461 24.1208 36.2112 24.2735 33.3769V8.08496H29.9514C29.8355 7.55646 29.7803 7.02034 29.7863 6.48352L22.02 6.48352V31.7511C21.8908 34.5997 19.0184 36.8562 15.5155 36.8608C14.4688 36.8535 13.4391 36.6441 12.5112 36.2496C13.1126 36.9276 13.9023 37.4803 14.816 37.8627C15.7297 38.2451 16.7416 38.4463 17.769 38.45ZM40.5569 16.6662V15.2605C38.4672 15.2611 36.4238 14.7593 34.6834 13.8181C36.2091 15.2615 38.2708 16.2612 40.5569 16.6662Z" fill="#25F4EE"/>
<path d="M34.6834 13.818C32.9688 12.2293 32.0237 10.1869 32.0246 8.07251H29.9514C30.2192 9.24155 30.7769 10.3539 31.5904 11.3418C32.404 12.3296 33.4564 13.1721 34.6834 13.818ZM15.5005 26.2501C14.0465 26.2561 12.6367 26.6575 11.4953 27.3904C10.3538 28.1234 9.5462 29.1458 9.20085 30.2952C8.85549 31.4446 8.99222 32.6549 9.58929 33.7338C10.1864 34.8127 11.2095 35.6982 12.496 36.2495C11.7926 35.4591 11.3714 34.5259 11.2789 33.553C11.1864 32.58 11.4262 31.6052 11.9718 30.7362C12.5174 29.8672 13.3476 29.1379 14.3707 28.6288C15.3937 28.1197 16.5698 27.8506 17.769 27.8513C18.4209 27.8583 19.0683 27.9409 19.6916 28.0966V21.6659C19.0551 21.5883 18.4126 21.5475 17.769 21.5437H17.4233V26.4334C16.7968 26.2966 16.149 26.2349 15.5005 26.2501Z" fill="#FE2C55"/>
<path d="M40.5568 16.6663V21.556C36.6883 21.5499 32.9201 20.5534 29.7862 18.7077V31.5555C29.7696 37.9663 23.3785 43.1563 15.5005 43.1563C12.5747 43.1606 9.71929 42.426 7.32825 41.0538C9.27799 42.7603 11.8141 43.9495 14.6062 44.4665C17.3983 44.9834 20.317 44.8041 22.9821 43.952C25.6472 43.0998 27.9352 41.6143 29.5481 39.6889C31.1609 37.7635 32.0239 35.4874 32.0245 33.1572V20.3459C35.169 22.1794 38.9417 23.1629 42.8101 23.1575V16.8614C42.0527 16.8596 41.2977 16.7942 40.5568 16.6663Z" fill="#FE2C55"/>
<path d="M29.7862 31.5554V18.7076C32.9297 20.5428 36.7031 21.5265 40.5718 21.5192V16.6296C38.2863 16.2368 36.2196 15.25 34.6834 13.818C33.4564 13.1721 32.404 12.3296 31.5904 11.3418C30.7768 10.3539 30.2191 9.24155 29.9514 8.07251H24.2734V33.3772C24.2182 34.4786 23.7426 35.5387 22.9129 36.4101C22.0831 37.2815 20.9405 37.921 19.6436 38.2396C18.3467 38.5582 16.9601 38.5401 15.6765 38.1879C14.3928 37.8357 13.2758 37.1668 12.4808 36.2742C11.1941 35.723 10.1707 34.8375 9.57349 33.7585C8.97627 32.6796 8.83947 31.4691 9.18484 30.3196C9.53022 29.1701 10.3379 28.1476 11.4796 27.4146C12.6212 26.6817 14.0312 26.2803 15.4853 26.2744C16.1375 26.2792 16.7853 26.3616 17.4081 26.519V21.6292C14.645 21.6674 11.9553 22.3589 9.66678 23.6195C7.37829 24.8801 5.58997 26.6553 4.51985 28.7287C3.44974 30.8021 3.14407 33.0841 3.64012 35.2964C4.13617 37.5087 5.4125 39.5558 7.31349 41.188C9.72802 42.515 12.5875 43.2025 15.5005 43.1562C23.3785 43.1562 29.7696 37.9662 29.7862 31.5554Z" fill="black"/>
</g>
</svg>
