<svg width="40" height="43" viewBox="0 0 40 43" fill="none" xmlns="http://www.w3.org/2000/svg">
<g style="mix-blend-mode:luminosity" clip-path="url(#clip0_30_2)">
<path fill-rule="evenodd" clip-rule="evenodd" d="M13.8667 0.412109H26.1333C37.3333 0.412109 40 3.19862 40 14.9019V27.7199C40 39.4232 37.3333 42.2097 26.1333 42.2097H13.8667C2.66667 42.2097 0 39.4232 0 27.7199V14.9019C0 3.19862 2.66667 0.412109 13.8667 0.412109Z" fill="#5181B8"/>
<path fill-rule="evenodd" clip-rule="evenodd" d="M32.7571 14.8118C32.9425 14.1661 32.7571 13.6915 31.875 13.6915H28.9584C28.2167 13.6915 27.875 14.1014 27.6896 14.5536C27.6896 14.5536 26.2063 18.3313 24.105 20.7851C23.4252 21.4955 23.1163 21.7215 22.7455 21.7215C22.56 21.7215 22.2917 21.4955 22.2917 20.8498V14.8118C22.2917 14.0368 22.0765 13.6915 21.4584 13.6915H16.875C16.4117 13.6915 16.133 14.0512 16.133 14.3921C16.133 15.1268 17.1834 15.2962 17.2917 17.3625V21.8508C17.2917 22.8348 17.1217 23.0133 16.7509 23.0133C15.7621 23.0133 13.3571 19.2184 11.9305 14.8764C11.6509 14.0324 11.3705 13.6915 10.625 13.6915H7.70837C6.87504 13.6915 6.70837 14.1014 6.70837 14.5536C6.70837 15.3608 7.69733 19.3647 11.3125 24.6599C13.7227 28.2761 17.1184 30.2364 20.2084 30.2364C22.0625 30.2364 22.2917 29.801 22.2917 29.0511V26.3179C22.2917 25.4471 22.4673 25.2734 23.0544 25.2734C23.4871 25.2734 24.2286 25.4993 25.9592 27.2429C27.9367 29.3095 28.2625 30.2364 29.375 30.2364H32.2917C33.125 30.2364 33.5417 29.801 33.3013 28.9418C33.0384 28.0854 32.0942 26.8432 30.8413 25.3703C30.1615 24.5306 29.1417 23.6265 28.833 23.1746C28.4002 22.5933 28.5238 22.3349 28.833 21.8183C28.833 21.8183 32.3863 16.5878 32.7571 14.8118Z" fill="white"/>
</g>
<defs>
<clipPath id="clip0_30_2">
<rect width="40" height="41.7976" fill="white" transform="translate(0 0.412109)"/>
</clipPath>
</defs>
</svg>
