<svg width="57" height="39" viewBox="0 0 57 39" fill="none" xmlns="http://www.w3.org/2000/svg">
<g style="mix-blend-mode:luminosity" clip-path="url(#clip0_30_6)">
<path d="M37.969 18.9319C32.7428 16.2113 27.7386 13.7101 22.6234 11.0988V26.7207C28.0062 23.8703 33.6797 21.2599 37.9912 18.9319H37.969Z" fill="white"/>
<path d="M37.969 18.9319C32.7428 16.2113 22.6234 11.0988 22.6234 11.0988L36.1152 19.9321C36.1152 19.9321 33.6575 21.2599 37.969 18.9319Z" fill="#E8E0E0"/>
<path d="M23.6069 38.9493C12.7515 38.7546 9.04387 38.5795 6.76492 38.1221C5.22307 37.8182 3.8832 37.1435 2.90077 36.1649C2.14147 35.4242 1.53763 34.2941 1.06915 32.7263C0.667297 31.4201 0.510784 30.3333 0.287649 27.6787C-0.053928 21.6874 -0.135357 16.7892 0.287649 11.3161C0.636629 8.2937 0.805831 4.70576 3.1239 2.61254C4.21843 1.63289 5.49168 1.00245 6.92143 0.74183C9.1549 0.328748 18.6704 0.00219727 28.5212 0.00219727C38.3497 0.00219727 47.8864 0.328748 50.1219 0.74183C51.9081 1.06838 53.5832 2.047 54.5667 3.30891C56.6817 6.54969 56.7187 10.5796 56.9334 13.7317C57.0222 15.2337 57.0222 23.7621 56.9334 25.264C56.5992 30.2457 56.3306 32.0083 55.5713 33.8357C55.1018 34.9895 54.701 35.5983 54.0072 36.273C52.9192 37.3113 51.5322 38.002 50.031 38.2529C40.6371 38.9411 32.6603 39.0904 23.6069 38.9493ZM37.9922 18.9318C32.766 16.2113 27.7619 13.6885 22.6467 11.0771V26.7C28.0294 23.8497 33.704 21.2383 38.0145 18.9102L37.9922 18.9318Z" fill="#CD201F"/>
</g>
<defs>
<clipPath id="clip0_30_6">
<rect width="57" height="39" fill="white"/>
</clipPath>
</defs>
</svg>
