<svg width="33" height="36" viewBox="0 0 33 36" fill="none" xmlns="http://www.w3.org/2000/svg">
<path d="M16.5 22.4027C19.9457 22.4027 23.5346 23.2222 27.2668 24.8613C30.9989 26.5004 32.865 28.6454 32.865 31.2964V35.7951H0.134033V31.2964C0.134033 28.6454 2.00012 26.5004 5.73228 24.8613C9.46445 23.2222 13.0534 22.4027 16.499 22.4027H16.5ZM16.5 17.9039C14.2671 17.9039 12.3531 17.0319 10.7578 15.2879C9.16262 13.544 8.36501 11.4514 8.36501 9.01025C8.36501 6.56911 9.16262 4.45906 10.7578 2.6801C12.3531 0.901138 14.2671 0.0116577 16.5 0.0116577C18.7329 0.0116577 20.647 0.901138 22.2422 2.6801C23.8374 4.45906 24.6351 6.56911 24.6351 9.01025C24.6351 11.4514 23.8374 13.544 22.2422 15.2879C20.647 17.0319 18.7329 17.9039 16.5 17.9039Z" fill="white"/>
</svg>
