<svg width="49" height="54" viewBox="0 0 49 54" fill="none" xmlns="http://www.w3.org/2000/svg">
<g style="mix-blend-mode:lighten" clip-path="url(#clip0_30_84)">
<path d="M25.7845 29.2763C25.8472 29.9651 25.8472 30.8069 25.8472 32.7966C25.8472 35.0159 25.8472 35.8577 25.7845 36.623H27.1019C27.0392 35.8577 27.0392 35.0159 27.0392 32.7966C27.0392 30.7303 27.0392 29.9651 27.1019 29.2763H25.7845Z" fill="white"/>
<path d="M28.2939 34.6333C28.2939 35.9342 29.1095 36.6995 30.4896 36.6995C31.9326 36.6995 32.7481 35.9342 32.7481 34.5567C32.7481 33.6384 32.309 33.0262 31.5562 32.72C32.1835 32.4139 32.5599 31.8782 32.5599 31.0364C32.5599 29.812 31.8071 29.1232 30.5524 29.1232C29.2349 29.1232 28.4821 29.8885 28.4821 31.113C28.4821 31.8782 28.8585 32.4905 29.4859 32.7966C28.733 33.1027 28.2939 33.7149 28.2939 34.6333ZM30.4896 29.812C31.0543 29.812 31.3679 30.3477 31.3679 31.1895C31.3679 32.0313 31.0543 32.4905 30.5524 32.4905C29.9878 32.4905 29.6741 31.9548 29.6741 31.113C29.6741 30.2712 29.9878 29.812 30.4896 29.812ZM30.4896 33.1792C31.117 33.1792 31.4934 33.7149 31.4934 34.7098C31.4934 35.6281 31.117 36.1638 30.4896 36.1638C29.8623 36.1638 29.4859 35.6281 29.4859 34.6333C29.5486 33.7149 29.925 33.1792 30.4896 33.1792Z" fill="white"/>
<path d="M33.6265 34.6333C33.6265 35.9342 34.442 36.6995 35.8222 36.6995C37.2652 36.6995 38.0807 35.9342 38.0807 34.5567C38.0807 33.6384 37.6416 33.0262 36.8887 32.72C37.5161 32.4139 37.8925 31.8782 37.8925 31.0364C37.8925 29.812 37.1397 29.1232 35.885 29.1232C34.5675 29.1232 33.8147 29.8885 33.8147 31.113C33.8147 31.8782 34.1911 32.4905 34.8184 32.7966C34.0656 33.1027 33.6265 33.7149 33.6265 34.6333ZM35.885 29.812C36.4496 29.812 36.7633 30.3477 36.7633 31.1895C36.7633 32.0313 36.4496 32.4905 35.9477 32.4905C35.3831 32.4905 35.0694 31.9548 35.0694 31.113C35.0067 30.2712 35.3203 29.812 35.885 29.812ZM35.885 33.1792C36.5123 33.1792 36.8887 33.7149 36.8887 34.7098C36.8887 35.6281 36.5123 36.1638 35.885 36.1638C35.2576 36.1638 34.8812 35.6281 34.8812 34.6333C34.8812 33.7149 35.2576 33.1792 35.885 33.1792Z" fill="white"/>
<path d="M41.5939 31.8783C40.9038 31.8783 40.4646 32.2609 40.2137 32.6435C40.2764 30.9599 40.6528 29.812 41.5939 29.812C42.3467 29.812 42.7859 30.7303 42.7859 30.7303V29.4294C42.7859 29.4294 42.3467 29.1998 41.5311 29.1998C40.0255 29.1998 38.8962 30.6538 38.8962 33.1792C38.8962 35.7047 39.7745 36.8526 41.2175 36.8526C42.5349 36.8526 43.3505 35.8577 43.3505 34.2506C43.4132 32.7201 42.7231 31.8783 41.5939 31.8783ZM41.3429 36.0108C40.7156 36.0108 40.3392 35.3985 40.2764 33.4088C40.4646 33.1027 40.8411 32.7966 41.2802 32.7966C41.9076 32.7966 42.2212 33.3323 42.2212 34.3272C42.2212 35.3985 41.8448 36.0108 41.3429 36.0108Z" fill="white"/>
<path d="M37.3906 7.92495C28.8585 -2.48288 14.9939 -2.48288 6.4618 7.92495C2.25849 12.9758 0.125472 19.5572 0 26.2152V26.2917C0 26.5978 0 26.8274 0 27.1335C0 26.9804 0 26.9039 0 26.7509C0 29.0467 0.188208 31.3425 0.690096 33.6384C3.76416 47.9492 15.684 56.5203 27.4156 52.8469C32.9364 51.0868 37.3906 46.9543 40.2765 41.5208H40.2137C37.5788 46.1125 33.6892 49.6328 28.8585 51.1633C18.1934 54.5306 7.27737 46.7247 4.51699 33.7149C4.0151 31.1895 3.82689 28.7406 3.88963 26.2917H4.76793C4.7052 28.2814 4.8934 30.3477 5.33256 32.3374C7.84199 44.0462 17.6288 51.0103 27.1647 48.0257C30.6779 46.9543 33.6265 44.5819 35.885 41.5208C32.9991 44.8115 29.1722 46.8778 24.9062 46.8778C20.3265 46.8778 16.1859 44.5054 13.2373 40.7555C13.1746 40.679 13.1118 40.6024 13.1118 40.6024C13.0491 40.5259 12.9863 40.4494 12.9863 40.3729C11.3552 38.1535 10.0378 35.3985 9.41039 32.2609C8.97124 30.2712 8.84577 28.2814 8.97124 26.2917H9.97502C9.91228 27.9753 10.0378 29.6589 10.4142 31.3425C12.2962 40.2963 19.8246 45.7298 27.1647 43.3575C28.4194 42.9748 29.6114 42.3626 30.6779 41.5208H30.4269C28.984 42.2861 27.3529 42.7452 25.7217 42.7452C19.1345 42.7452 13.8019 36.2403 13.8019 28.2049C13.8019 27.5161 13.8646 26.9039 13.9274 26.2917H17.0642H29.9251H34.1284H40.0255H43.8524C43.6642 19.6337 41.5312 12.9758 37.3906 7.92495ZM6.96369 25.4499C7.40284 22.7714 8.40662 20.1694 10.1005 18.1032C14.6175 12.5932 22.0203 12.5932 26.5373 18.1032C27.7293 19.5572 28.6076 21.2408 29.1095 23.001L6.96369 25.4499ZM30.0505 15.9604C24.6552 9.37898 15.9977 9.37898 10.6024 15.9604C8.40662 18.6389 7.1519 22.0061 6.77548 25.5264L3.19953 25.9091C3.63869 21.7765 5.14435 17.7205 7.77926 14.5829C14.0529 6.93008 24.2161 6.93008 30.4897 14.5829C32.3718 16.8787 33.6892 19.5572 34.442 22.4653L33.4383 22.5418C32.7482 20.1694 31.6189 17.8736 30.0505 15.9604ZM38.5826 22.0061C37.8298 18.3328 36.2614 14.889 33.8774 11.9809C26.851 3.40979 15.433 3.40979 8.34388 11.9809C5.14435 15.8839 3.45048 20.8582 3.1368 25.9091L1.12925 26.1386L0 26.2152C0.250944 20.399 2.19576 14.7359 5.83444 10.2973C13.6137 0.731305 26.2864 0.731305 34.1284 10.2973C36.826 13.588 38.5826 17.644 39.3982 21.9296L38.5826 22.0061Z" fill="white"/>
</g>
<defs>
<clipPath id="clip0_30_84">
<rect width="49" height="53.5697" fill="white" transform="translate(0 0.11908)"/>
</clipPath>
</defs>
</svg>
