<svg width="100" height="120" viewBox="0 0 100 120" fill="none" xmlns="http://www.w3.org/2000/svg">
<path d="M67.1479 26.4081H63.8627C63.8266 26.1632 63.7905 25.9183 63.7544 25.6734C63.4656 24.3673 62.4909 23.3877 61.2995 23.3061C61.119 23.3061 60.9385 23.3061 60.758 23.3061C43.6822 23.3061 26.5703 23.3061 9.49447 23.3061C8.95295 23.3061 8.41144 23.4285 7.94212 23.6734C7.00349 24.1632 6.42588 25.2244 6.42588 26.3673C6.42588 26.4897 6.42588 26.6122 6.42588 26.7346C6.42588 50.2857 6.42588 73.8367 6.42588 97.3877C6.42588 98.7347 6.82299 99.8367 7.90602 100.408C8.41144 100.653 8.95295 100.775 9.49447 100.775C18.628 100.816 27.7977 100.816 36.9313 100.775C44.8735 100.775 52.8158 100.775 60.758 100.775C61.3717 100.816 62.0216 100.653 62.5631 100.286C63.3934 99.6734 63.8988 98.6122 63.8266 97.5102C63.8266 92.6122 63.8266 87.6734 63.8266 82.7755C63.8266 82.6122 63.8266 82.4081 63.8266 82.204H67.1479V82.6938C67.1479 87.6326 67.1479 92.5714 67.1479 97.551C67.2201 101.02 64.9818 104 61.9494 104.49C61.5883 104.531 61.1912 104.571 60.8302 104.571C43.6822 104.571 26.5342 104.571 9.38617 104.571C6.42588 104.653 3.7905 102.326 3.17678 99.0204C3.10458 98.5306 3.06848 98.0408 3.06848 97.551C3.06848 73.8775 3.06848 50.1632 3.06848 26.4898C3.03238 22.6938 5.70386 19.551 9.06126 19.5102C9.09736 19.5102 9.09736 19.5102 9.13346 19.5102C9.27786 19.5102 9.42227 19.5102 9.53057 19.5102C26.6064 19.5102 43.6461 19.5102 60.7219 19.5102C62.3104 19.4285 63.8627 20.0408 65.0901 21.2244C66.3537 22.4489 67.1118 24.204 67.184 26.1224C67.1479 26.2449 67.1479 26.3265 67.1479 26.4081Z" fill="#213765"/>
<path d="M82.888 37.6735C82.888 38.4899 82.6714 39.2654 82.2743 39.9184C79.7472 44.2041 77.2201 48.5307 74.693 52.8572C69.2418 62.1225 63.7905 71.3878 58.3754 80.6531C58.0865 81.1429 57.7255 81.5511 57.2923 81.8776C54.0793 84.245 50.8302 86.5715 47.6172 88.9388C47.184 89.3062 46.6425 89.4286 46.101 89.347C45.2346 89.1429 44.693 88.2041 44.8374 87.2246C45.2346 84.6531 45.7039 82.0817 46.1371 79.5511C46.462 77.5919 46.7869 75.6327 47.1479 73.6735C47.2201 73.2654 47.3645 72.898 47.545 72.5307C54.1876 60.5715 60.8663 48.6531 67.545 36.7348C68.5198 34.9797 69.6028 33.2654 70.6858 31.5919C71.9133 29.7143 74.1154 29.0613 76.0288 29.9592C78.0144 30.9388 79.8555 32.2041 81.5523 33.7552C82.2382 34.3674 82.888 36.3674 82.888 37.6735ZM56.2815 77.3878L75.4512 44.7348L69.5667 40.1225L51.0468 73.2654L56.2815 77.3878ZM77.2923 41.5919C77.9782 40.4082 78.6642 39.2654 79.3501 38.0817C79.675 37.5103 79.5667 36.7348 79.0974 36.3266C77.7255 35.347 76.3898 34.3674 74.9819 33.4694C74.332 33.1021 73.5378 33.347 73.1768 34.0409C72.7436 34.7756 72.3104 35.4694 71.8772 36.2041C71.7328 36.449 71.5884 36.6939 71.4439 36.9388L77.2923 41.5919ZM48.8447 83.5511L53.7544 79.9592L49.9638 76.9797C49.5667 79.1429 49.2057 81.2654 48.8447 83.5511Z" fill="#213765"/>
<path d="M57.148 36.6531H24.9819V39.7959H57.148V36.6531Z" fill="#213765"/>
<path d="M19.1697 34.8164H13.1047V41.5919H19.1697V34.8164Z" fill="#213765"/>
<path d="M51.5523 51.9593H24.9819V48.8164H53.2852L51.5523 51.9593Z" fill="#213765"/>
<path d="M19.1697 47.0205H13.1047V53.796H19.1697V47.0205Z" fill="#213765"/>
<path d="M44.5126 63.9999L24.9819 64.1224V60.9795H46.1011L44.5126 63.9999Z" fill="#213765"/>
<path d="M19.1697 59.1428H13.1047V65.9183H19.1697V59.1428Z" fill="#213765"/>
</svg>
