<svg width="274" height="135" viewBox="0 0 274 135" fill="none" xmlns="http://www.w3.org/2000/svg">
<g clip-path="url(#clip0_36_245)">
<path d="M84.6298 42.1721H102.019V47.8714H93.7471V87.916H84.6298V42.1721ZM112.329 70.7434L113.892 47.8714H114.415L115.977 70.7434H112.329ZM102.232 87.916H111.159L112.003 75.7675H116.302L117.151 87.916H126.074L121.319 42.1721H106.987L102.232 87.916ZM139.131 71.9059V80.5294C139.131 81.6919 140.028 82.0293 140.551 82.0293C141.411 82.0293 142.009 81.3169 142.009 80.5294V69.8815C142.009 68.4564 141.747 66.8817 138.346 66.8817H134.645V61.8576H138.495C141.075 61.8576 142.009 61.2576 142.009 58.4453V49.3713C142.009 48.5838 141.411 47.8714 140.551 47.8714C140.028 47.8714 139.131 48.1712 139.131 49.3713V56.8327H130.01V50.3463C130.01 47.159 130.383 42.1721 136.775 42.1721H144.326C150.718 42.1721 151.13 47.159 151.13 50.3463V57.6574C151.13 62.6443 147.653 63.9943 144.924 63.8816V64.3317C151.055 64.1818 151.13 68.9057 151.13 70.5183V79.7423C151.13 82.9667 150.718 87.916 144.326 87.916H136.775C130.383 87.916 130.01 82.9663 130.01 79.7419V71.9059H139.131ZM157.111 42.1721H178.231V87.916H169.11V47.8714H166.232V87.916H157.111V42.1721ZM193.333 67.3315V47.8718H194.529C195.501 47.8718 196.211 48.6961 196.211 50.1588V65.0441C196.211 66.5068 195.501 67.3311 194.529 67.3311L193.333 67.3315ZM184.212 87.916H193.333V72.3556H198.566C204.921 72.3556 205.332 67.4062 205.332 64.1814V50.3463C205.332 47.159 204.921 42.1721 198.566 42.1721H184.212V87.916ZM223.312 80.5294C223.312 81.3169 222.714 82.0293 221.854 82.0293C221.33 82.0293 220.434 81.6919 220.434 80.5294V49.3713C220.434 48.1712 221.331 47.8714 221.854 47.8714C222.714 47.8714 223.312 48.5838 223.312 49.3713V80.5294ZM211.313 79.7423C211.313 82.9667 211.724 87.916 218.079 87.916H225.667C232.022 87.916 232.433 82.9663 232.433 79.7419V50.3463C232.433 47.159 232.022 42.1721 225.667 42.1721H218.079C211.724 42.1721 211.313 47.159 211.313 50.3463V79.7423ZM262.113 42.1721H274V87.916H264.879V59.2324H264.543L259.833 87.916H252.544L247.871 59.2324H247.535V87.916H238.414V42.1721H250.263L256.207 74.3428L262.113 42.1721ZM72.8099 25.2996C70.0178 13.0387 63.0198 3.06525 62.0555 1.45264C60.5303 3.73963 54.9495 12.5514 52.1124 22.2999C49.0134 33.2108 48.5574 42.8844 49.6269 52.3706C50.6883 61.8944 54.6989 71.6808 54.6989 71.6808C56.8299 76.7801 60.022 82.2915 62.1006 84.9914C65.1468 81.0171 72.1484 69.1683 74.3314 53.7206C75.5463 45.0967 75.5987 37.5605 72.8099 25.2996ZM62.0555 81.9169C60.6838 79.3297 58.5528 74.4175 58.351 66.7686C58.2987 59.4199 61.2405 53.083 62.1006 51.771C62.8668 53.0834 65.401 58.5948 65.7039 66.1314C65.9094 73.4805 63.4722 79.2917 62.0555 81.9169ZM71.999 46.1089C71.8942 50.796 71.3371 55.7454 70.6269 58.7076C70.8811 53.6083 70.272 46.4467 69.1054 40.8225C67.9392 35.2355 64.6384 25.8621 62.0035 21.5499C59.57 25.6746 56.5717 33.7732 55.0019 40.7849C53.4244 47.7962 53.3797 56.3078 53.3797 58.8575C52.9607 56.72 51.9142 49.0339 52.2094 41.3474C52.4564 35.0109 53.9364 28.4493 54.7477 25.4495C57.8426 15.4385 61.3453 9.0268 62.0031 8.01421C62.6613 9.0268 67.0719 16.9383 69.3596 25.2245C71.6364 33.511 72.0961 41.4593 71.999 46.1089Z" fill="#0079C2"/>
<path d="M66.7916 87.8409H45.5631V102.127C45.5821 102.127 45.597 102.089 45.6155 102.089C50.6171 97.0649 58.7289 97.0649 63.7341 102.089C68.7357 107.076 68.7357 115.212 63.7341 120.237C63.7115 120.274 63.689 120.274 63.6668 120.311C63.6406 120.311 63.6144 120.349 63.5919 120.387C58.6016 125.336 52.0826 127.81 45.5631 127.81C39.0143 127.81 32.465 125.336 27.4711 120.311C18.664 111.5 17.6211 97.8144 24.3347 87.8409C25.2564 86.4688 26.3066 85.1882 27.4711 84.0165C32.465 78.9924 39.0143 76.5175 45.5631 76.5175V42.1721C20.3986 42.1721 0 62.6068 0 87.8409C0 113.075 20.3986 133.547 45.5631 133.547C58.6838 133.547 70.5037 127.96 78.8169 119.074V87.8409H66.7916ZM274 101.28H84.6298V133.547H274V101.28ZM257.625 123.806H260.028V118.936H257.625V123.806ZM257.625 115.283H261.26L263.695 116.501L264.295 117.718L264.896 120.153V121.371C264.833 130.094 259.237 126.901 253.357 127.459V107.368H257.625V115.283ZM226.044 107.368V111.021H223.009V127.459H218.173V111.021H215.138V107.368H226.044ZM181.755 121.98H182.356L183.557 121.371V112.848H181.755V121.98ZM176.887 112.848H175.054V121.371L176.286 121.98H176.887V112.848ZM181.755 107.368V109.195H184.79L186.592 110.412L187.825 111.63L188.426 114.065V120.762L187.825 123.198L186.592 124.415L184.79 125.633H181.755V127.459H176.887V125.633H173.852L172.019 124.415L170.818 123.198L170.217 120.762V114.065L170.817 111.63L172.019 110.412L173.852 109.195H176.887V107.368H181.755ZM142.291 107.368V111.021H138.649V115.283H142.291V118.936H138.649V123.806H142.898V127.459H133.793V107.368H142.291ZM98.59 115.283H101.018V107.368H105.266V127.459H101.018V118.936H98.59V127.459H93.7342V107.368H98.59V115.283Z" fill="#0079C2"/>
</g>
<defs>
<clipPath id="clip0_36_245">
<rect width="274" height="135" fill="white"/>
</clipPath>
</defs>
</svg>
