<?xml version="1.0" encoding="utf-8"?><svg xmlns="http://www.w3.org/2000/svg" xmlns:xlink="http://www.w3.org/1999/xlink" width="1602" height="2000" preserveAspectRatio="xMidYMid" viewBox="0 0 1602 2000" style="z-index:1;margin-right:-1.6px;display:block;background-color:rgb(255, 255, 255);animation-play-state:paused" ><g transform="translate(801,1000) scale(1,1) translate(-801,-1000)" style="transform:matrix(1, 0, 0, 1, 0, 0);animation-play-state:paused" ><path id="path0" d="M 1051.9229239113583 1673.2500790841493
c 0 26.86546292547417 -6.573464332828785 7.716675521146835 -14.29013985397562 7.716675521146835
S 1023.3426442034071 1700.1155420096236 1023.3426442034071 1673.2500790841493
s 6.573464332828785 -7.716675521146835 14.29013985397562 -7.716675521146835
S 1051.9229239113583 1646.384616158675 1051.9229239113583 1673.2500790841493
z" fill="none" stroke="none" style="animation-play-state:paused" ></path>


<circle cx="0" cy="0" r="2.4991426843841174" fill="#3068b0" opacity="0.9" transform="translate(1051.7943115234375 1678.942138671875)" style="opacity:0.9;animation-play-state:paused" ></circle>
<path id="path1" d="M 600.7379724987876 1415.381177056478
c 0 26.00233287506418 -6.362272937515702 7.468755187518434 -13.831028125034138 7.468755187518434
S 573.0759162487194 1441.3835099315422 573.0759162487194 1415.381177056478
s 6.362272937515702 -7.468755187518434 13.831028125034138 -7.468755187518434
S 600.7379724987876 1389.3788441814138 600.7379724987876 1415.381177056478
z" fill="none" stroke="none" style="animation-play-state:paused" ></path>


<circle cx="0" cy="0" r="3.88111635484611" fill="#05336e" opacity="0.9" transform="translate(581.3436279296875 1405.2169189453125)" style="opacity:0.9;animation-play-state:paused" ></circle>
<path id="path2" d="M 1159.9816248526458 955.4128778329648
c 0 19.034669410149363 -4.657419110993992 5.467405043340774 -10.124824154334766 5.467405043340774
S 1139.731976543976 974.4475472431142 1139.731976543976 955.4128778329648
s 4.657419110993992 -5.467405043340774 10.124824154334766 -5.467405043340774
S 1159.9816248526458 936.3782084228154 1159.9816248526458 955.4128778329648
z" fill="none" stroke="none" style="animation-play-state:paused" ></path>


<circle cx="0" cy="0" r="2.605616731223264" fill="#3068b0" opacity="0.9" transform="translate(1159.1683349609375 964.2976684570312)" style="opacity:0.9;animation-play-state:paused" ></circle>
<path id="path3" d="M 872.9826580023321 958.70385308523
c 0 35.85199466701306 -8.772296567460641 10.297913361801625 -19.070209929262266 10.297913361801625
S 834.8422381438074 994.555847752243 834.8422381438074 958.70385308523
s 8.772296567460641 -10.297913361801625 19.070209929262266 -10.297913361801625
S 872.9826580023321 922.8518584182169 872.9826580023321 958.70385308523
z" fill="none" stroke="none" style="animation-play-state:paused" ></path>


<circle cx="0" cy="0" r="2.1345622782666185" fill="#05336e" opacity="0.9" transform="translate(848.7750244140625 946.5831909179688)" style="opacity:0.9;animation-play-state:paused" ></circle>
<path id="path4" d="M 329.51100722305733 1587.5878107364501
c 0 19.616737655840595 -4.799840064726953 5.634594858592511 -10.434434923319465 5.634594858592511
S 308.64213737641836 1607.2045483922907 308.64213737641836 1587.5878107364501
s 4.799840064726953 -5.634594858592511 10.434434923319465 -5.634594858592511
S 329.51100722305733 1567.9710730806096 329.51100722305733 1587.5878107364501
z" fill="none" stroke="none" style="animation-play-state:paused" ></path>


<circle cx="0" cy="0" r="3.4166971567442803" fill="#05336e" opacity="0.9" transform="translate(324.5239562988281 1596.326904296875)" style="opacity:0.9;animation-play-state:paused" ></circle>
<path id="path5" d="M 751.516585036105 850.2505430501285
c 0 27.949493163259376 -6.838705773988996 8.028045908595779 -14.866751682584773 8.028045908595779
S 721.7830816709354 878.2000362133879 721.7830816709354 850.2505430501285
s 6.838705773988996 -8.028045908595779 14.866751682584773 -8.028045908595779
S 751.516585036105 822.3010498868691 751.516585036105 850.2505430501285
z" fill="none" stroke="none" style="animation-play-state:paused" ></path>


<circle cx="0" cy="0" r="2.9792807968068584" fill="#05336e" opacity="0.9" transform="translate(743.7149658203125 862.097900390625)" style="opacity:0.9;animation-play-state:paused" ></circle>
<path id="path6" d="M 1043.9345774377807 1489.2523763194704
c 0 19.48559919788493 -4.767752995227164 5.596927429179715 -10.364680424406878 5.596927429179715
S 1023.2052165889669 1508.7379755173554 1023.2052165889669 1489.2523763194704
s 4.767752995227164 -5.596927429179715 10.364680424406878 -5.596927429179715
S 1043.9345774377807 1469.7667771215854 1043.9345774377807 1489.2523763194704
z" fill="none" stroke="none" style="animation-play-state:paused" ></path>


<circle cx="0" cy="0" r="3.7918622480356436" fill="#3068b0" opacity="0.9" transform="translate(1033.8397216796875 1494.85986328125)" style="opacity:0.9;animation-play-state:paused" ></circle>
<path id="path7" d="M 440.7133226000405 158.14442966259372
c 0 37.35027843995664 -9.138897916159602 10.728271466796055 -19.86716938295566 10.728271466796055
S 400.9789838341292 195.49470810255036 400.9789838341292 158.14442966259372
s 9.138897916159602 -10.728271466796055 19.86716938295566 -10.728271466796055
S 440.7133226000405 120.79415122263708 440.7133226000405 158.14442966259372
z" fill="none" stroke="none" style="animation-play-state:paused" ></path>


<circle cx="0" cy="0" r="2.064955513616024" fill="#05336e" opacity="0.9" transform="translate(401.02569580078125 153.8338165283203)" style="opacity:0.9;animation-play-state:paused" ></circle>
<path id="path8" d="M 167.25152373157627 687.4662517583146
c 0 25.494994728807733 -6.238137008112529 7.3230304008277525 -13.561167408940282 7.3230304008277525
S 140.12918891369569 712.9612464871223 140.12918891369569 687.4662517583146
s 6.238137008112529 -7.3230304008277525 13.561167408940282 -7.3230304008277525
S 167.25152373157627 661.9712570295069 167.25152373157627 687.4662517583146
z" fill="none" stroke="none" style="animation-play-state:paused" ></path>


<circle cx="0" cy="0" r="2.1261878134125936" fill="#3068b0" opacity="0.9" transform="translate(142.2257080078125 674.0765991210938)" style="opacity:0.9;animation-play-state:paused" ></circle>
<path id="path9" d="M 1365.4100683461306 1070.1897547418873
c 0 25.58469331637813 -6.2600845348584775 7.34879488874691 -13.608879423605387 7.34879488874691
S 1338.1923094989197 1095.7744480582655 1338.1923094989197 1070.1897547418873
s 6.2600845348584775 -7.34879488874691 13.608879423605387 -7.34879488874691
S 1365.4100683461306 1044.6050614255091 1365.4100683461306 1070.1897547418873
z" fill="none" stroke="none" style="animation-play-state:paused" ></path>


<circle cx="0" cy="0" r="2.369812535938176" fill="#3068b0" opacity="0.9" transform="translate(1339.119140625 1081.6292724609375)" style="opacity:0.9;animation-play-state:paused" ></circle>
<path id="path10" d="M 757.991398476831 1071.3106368710778
c 0 19.370251524441002 -4.73952962832067 5.563795650637309 -10.30332527895798 5.563795650637309
S 737.384747918915 1090.6808883955189 737.384747918915 1071.3106368710778
s 4.73952962832067 -5.563795650637309 10.30332527895798 -5.563795650637309
S 757.991398476831 1051.9403853466367 757.991398476831 1071.3106368710778
z" fill="none" stroke="none" style="animation-play-state:paused" ></path>


<circle cx="0" cy="0" r="3.2156804841580033" fill="#05336e" opacity="0.9" transform="translate(748.6100463867188 1076.9952392578125)" style="opacity:0.9;animation-play-state:paused" ></circle>
<path id="path11" d="M 792.9944479395966 1138.8837957074145
c 0 19.93957515510125 -4.878832218801368 5.727324778592912 -10.60615699739428 5.727324778592912
S 771.7821339448082 1158.8233708625157 771.7821339448082 1138.8837957074145
s 4.878832218801368 -5.727324778592912 10.60615699739428 -5.727324778592912
S 792.9944479395966 1118.9442205523133 792.9944479395966 1138.8837957074145
z" fill="none" stroke="none" style="animation-play-state:paused" ></path>


<circle cx="0" cy="0" r="2.8563423148981104" fill="#3068b0" opacity="0.9" transform="translate(771.7901000976562 1140.1544189453125)" style="opacity:0.9;animation-play-state:paused" ></circle>
<path id="path12" d="M 917.2457961995722 1835.417648214495
c 0 23.780417537884293 -5.818612801822752 6.830545463009318 -12.64915826483207 6.830545463009318
S 891.947479669908 1859.1980657523793 891.947479669908 1835.417648214495
s 5.818612801822752 -6.830545463009318 12.64915826483207 -6.830545463009318
S 917.2457961995722 1811.637230676611 917.2457961995722 1835.417648214495
z" fill="none" stroke="none" style="animation-play-state:paused" ></path>


<circle cx="0" cy="0" r="2.436323184439928" fill="#3068b0" opacity="0.9" transform="translate(903.3475952148438 1842.4276123046875)" style="opacity:0.9;animation-play-state:paused" ></circle>
<path id="path13" d="M 857.7836127788149 691.6884339127369
c 0 32.8437727035489 -8.036242257251326 9.433849606338514 -17.47009186358984 9.433849606338514
S 822.8434290516353 724.5322066162857 822.8434290516353 691.6884339127369
s 8.036242257251326 -9.433849606338514 17.47009186358984 -9.433849606338514
S 857.7836127788149 658.844661209188 857.7836127788149 691.6884339127369
z" fill="none" stroke="none" style="animation-play-state:paused" ></path>


<circle cx="0" cy="0" r="3.3388500036973268" fill="#3068b0" opacity="0.9" transform="translate(823.4862670898438 679.5643920898438)" style="opacity:0.9;animation-play-state:paused" ></circle>
<path id="path14" d="M 324.7810655942725 639.6392447957708
c 0 36.79826075391647 -9.003829758937007 10.56971319527388 -19.573542954210886 10.56971319527388
S 285.6339796858507 676.4375055496872 285.6339796858507 639.6392447957708
s 9.003829758937007 -10.56971319527388 19.573542954210886 -10.56971319527388
S 324.7810655942725 602.8409840418543 324.7810655942725 639.6392447957708
z" fill="none" stroke="none" style="animation-play-state:paused" ></path>


<circle cx="0" cy="0" r="3.9348383816775083" fill="#05336e" opacity="0.9" transform="translate(287.4267272949219 657.352783203125)" style="opacity:0.9;animation-play-state:paused" ></circle>
<path id="path15" d="M 1470.5112317211936 474.7415573911193
c 0 20.801392982811212 -5.0897025383474235 5.974868197190454 -11.064570735537878 5.974868197190454
S 1448.3820902501177 495.54295037393047 1448.3820902501177 474.7415573911193
s 5.0897025383474235 -5.974868197190454 11.064570735537878 -5.974868197190454
S 1470.5112317211936 453.9401644083081 1470.5112317211936 474.7415573911193
z" fill="none" stroke="none" style="animation-play-state:paused" ></path>


<circle cx="0" cy="0" r="3.917826281225807" fill="#05336e" opacity="0.9" transform="translate(1469.2308349609375 485.23394775390625)" style="opacity:0.9;animation-play-state:paused" ></circle>
<path id="path16" d="M 1514.8461985577417 695.6910436460731
c 0 32.63173272368493 -7.984360134518652 9.372944505739289 -17.35730464025794 9.372944505739289
S 1480.1315892772257 728.322776369758 1480.1315892772257 695.6910436460731
s 7.984360134518652 -9.372944505739289 17.35730464025794 -9.372944505739289
S 1514.8461985577417 663.0593109223882 1514.8461985577417 695.6910436460731
z" fill="none" stroke="none" style="animation-play-state:paused" ></path>


<circle cx="0" cy="0" r="2.6846756652351296" fill="#05336e" opacity="0.9" transform="translate(1497.31689453125 705.0668334960938)" style="opacity:0.9;animation-play-state:paused" ></circle>
<path id="path17" d="M 862.0972395239239 1886.354661268171
c 0 20.913918292777346 -5.117235326956159 6.007189296861578 -11.124424623817736 6.007189296861578
S 839.8483902762885 1907.2685795609484 839.8483902762885 1886.354661268171
s 5.117235326956159 -6.007189296861578 11.124424623817736 -6.007189296861578
S 862.0972395239239 1865.4407429753935 862.0972395239239 1886.354661268171
z" fill="none" stroke="none" style="animation-play-state:paused" ></path>


<circle cx="0" cy="0" r="3.2626177269012335" fill="#05336e" opacity="0.9" transform="translate(846.9922485351562 1894.1328125)" style="opacity:0.9;animation-play-state:paused" ></circle>
<path id="path18" d="M 222.06863138708218 792.4753904491611
c 0 20.58943869963636 -5.037841383953577 5.913987711597678 -10.951829095551256 5.913987711597678
S 200.16497319597966 813.0648291487975 200.16497319597966 792.4753904491611
s 5.037841383953577 -5.913987711597678 10.951829095551256 -5.913987711597678
S 222.06863138708218 771.8859517495247 222.06863138708218 792.4753904491611
z" fill="none" stroke="none" style="animation-play-state:paused" ></path>


<circle cx="0" cy="0" r="2.1739537489866465" fill="#3068b0" opacity="0.9" transform="translate(222.05078125 794.4710693359375)" style="opacity:0.9;animation-play-state:paused" ></circle>
<path id="path19" d="M 1066.0320274563958 180.63596037873296
c 0 35.11137374369299 -8.591080809627007 10.085181819996922 -18.67626262962393 10.085181819996922
S 1028.6795021971477 215.74733412242594 1028.6795021971477 180.63596037873296
s 8.591080809627007 -10.085181819996922 18.67626262962393 -10.085181819996922
S 1066.0320274563958 145.52458663503998 1066.0320274563958 180.63596037873296
z" fill="none" stroke="none" style="animation-play-state:paused" ></path>


<circle cx="0" cy="0" r="3.592190701364861" fill="#05336e" opacity="0.9" transform="translate(1041.2686767578125 168.0308380126953)" style="opacity:0.9;animation-play-state:paused" ></circle>
<path id="path20" d="M 167.76446050071874 731.8785075617128
c 0 26.15463351566567 -6.399537987875641 7.512501116201841 -13.912039104077483 7.512501116201841
S 139.94038229256378 758.0331410773784 139.94038229256378 731.8785075617128
s 6.399537987875641 -7.512501116201841 13.912039104077483 -7.512501116201841
S 167.76446050071874 705.7238740460472 167.76446050071874 731.8785075617128
z" fill="none" stroke="none" style="animation-play-state:paused" ></path>


<circle cx="0" cy="0" r="2.4565990145095484" fill="#05336e" opacity="0.9" transform="translate(166.6779022216797 719.7551879882812)" style="opacity:0.9;animation-play-state:paused" ></circle>
<path id="path21" d="M 736.4365184960998 385.9262161400406
c 0 22.57196341559553 -5.522927218709544 6.483436300224247 -12.006363518933792 6.483436300224247
S 712.4237914582322 408.4981795556361 712.4237914582322 385.9262161400406
s 5.522927218709544 -6.483436300224247 12.006363518933792 -6.483436300224247
S 736.4365184960998 363.3542527244451 736.4365184960998 385.9262161400406
z" fill="none" stroke="none" style="animation-play-state:paused" ></path>


<circle cx="0" cy="0" r="2.690649744859936" fill="#05336e" opacity="0.9" transform="translate(719.852783203125 394.543701171875)" style="opacity:0.9;animation-play-state:paused" ></circle>
<path id="path22" d="M 211.02704627451342 1966.4325261365223
c 0 36.24749328902259 -8.869067506888506 10.41151402982564 -19.280581536714145 10.41151402982564
S 172.46588320108512 2002.6800194255447 172.46588320108512 1966.4325261365223
s 8.869067506888506 -10.41151402982564 19.280581536714145 -10.41151402982564
S 211.02704627451342 1930.1850328474998 211.02704627451342 1966.4325261365223
z" fill="none" stroke="none" style="animation-play-state:paused" ></path>


<circle cx="0" cy="0" r="3.5250354357506644" fill="#05336e" opacity="0.9" transform="translate(207.8972930908203 1985.5560302734375)" style="opacity:0.9;animation-play-state:paused" ></circle>
<path id="path23" d="M 1215.7994630377277 1518.1101212758626
c 0 34.536740917119054 -8.450479160571684 9.920127710236326 -18.370606870808007 9.920127710236326
S 1179.0582492961119 1552.6468621929816 1179.0582492961119 1518.1101212758626
s 8.450479160571684 -9.920127710236326 18.370606870808007 -9.920127710236326
S 1215.7994630377277 1483.5733803587436 1215.7994630377277 1518.1101212758626
z" fill="none" stroke="none" style="animation-play-state:paused" ></path>


<circle cx="0" cy="0" r="2.1206002558498467" fill="#3068b0" opacity="0.9" transform="translate(1215.6077880859375 1525.9071044921875)" style="opacity:0.9;animation-play-state:paused" ></circle>
<path id="path24" d="M 1039.802962573341 1199.1987655641556
c 0 35.38702237042699 -8.658526750210859 10.164357489377966 -18.822884239588824 10.164357489377966
S 1002.1571940941632 1234.5857879345826 1002.1571940941632 1199.1987655641556
s 8.658526750210859 -10.164357489377966 18.822884239588824 -10.164357489377966
S 1039.802962573341 1163.8117431937285 1039.802962573341 1199.1987655641556
z" fill="none" stroke="none" style="animation-play-state:paused" ></path>


<circle cx="0" cy="0" r="2.844262026663516" fill="#3068b0" opacity="0.9" transform="translate(1038.4407958984375 1215.28271484375)" style="opacity:0.9;animation-play-state:paused" ></circle>
<path id="path25" d="M 863.5449837978831 839.0245607139565
c 0 24.43765437870284 -5.979426071384737 7.019326257712518 -12.998752329097256 7.019326257712518
S 837.5474791396887 863.4622150926593 837.5474791396887 839.0245607139565
s 5.979426071384737 -7.019326257712518 12.998752329097256 -7.019326257712518
S 863.5449837978831 814.5869063352536 863.5449837978831 839.0245607139565
z" fill="none" stroke="none" style="animation-play-state:paused" ></path>


<circle cx="0" cy="0" r="3.80669385879617" fill="#05336e" opacity="0.9" transform="translate(857.3345336914062 828.1356201171875)" style="opacity:0.9;animation-play-state:paused" ></circle>
<path id="path26" d="M 662.1262037714314 217.02150239255272
c 0 33.17171894597437 -8.116484422951174 9.528046931290511 -17.644531354241686 9.528046931290511
S 626.8371410629479 250.19322133852708 626.8371410629479 217.02150239255272
s 8.116484422951174 -9.528046931290511 17.644531354241686 -9.528046931290511
S 662.1262037714314 183.84978344657836 662.1262037714314 217.02150239255272
z" fill="none" stroke="none" style="animation-play-state:paused" ></path>


<circle cx="0" cy="0" r="2.3339431864863003" fill="#05336e" opacity="0.9" transform="translate(654.3897705078125 201.64500427246094)" style="opacity:0.9;animation-play-state:paused" ></circle>
<path id="path27" d="M 969.207268968012 262.579328262254
c 0 24.72384322330678 -6.049451001447403 7.101529436481735 -13.150980437929139 7.101529436481735
S 942.9053080921539 287.3031714855608 942.9053080921539 262.579328262254
s 6.049451001447403 -7.101529436481735 13.150980437929139 -7.101529436481735
S 969.207268968012 237.85548503894725 969.207268968012 262.579328262254
z" fill="none" stroke="none" style="animation-play-state:paused" ></path>


<circle cx="0" cy="0" r="2.856284640061528" fill="#05336e" opacity="0.9" transform="translate(956.7453002929688 269.73480224609375)" style="opacity:0.9;animation-play-state:paused" ></circle>
<path id="path28" d="M 685.2698775555662 86.69612903991613
c 0 31.902399048237765 -7.8059061501007285 9.163455045770423 -16.96936119587115 9.163455045770423
S 651.331155163824 118.5985280881539 651.331155163824 86.69612903991613
s 7.8059061501007285 -9.163455045770423 16.96936119587115 -9.163455045770423
S 685.2698775555662 54.79372999167836 685.2698775555662 86.69612903991613
z" fill="none" stroke="none" style="animation-play-state:paused" ></path>


<circle cx="0" cy="0" r="3.908604430564281" fill="#05336e" opacity="0.9" transform="translate(685.2474365234375 83.87811279296875)" style="opacity:0.9;animation-play-state:paused" ></circle>
<path id="path29" d="M 1366.725336665716 1863.6907603683856
c 0 30.38196099640809 -7.433884073589213 8.726733477691685 -16.160617551280897 8.726733477691685
S 1334.4041015631542 1894.0727213647936 1334.4041015631542 1863.6907603683856
s 7.433884073589213 -8.726733477691685 16.160617551280897 -8.726733477691685
S 1366.725336665716 1833.3087993719776 1366.725336665716 1863.6907603683856
z" fill="none" stroke="none" style="animation-play-state:paused" ></path>


<circle cx="0" cy="0" r="2.857103228107046" fill="#3068b0" opacity="0.9" transform="translate(1344.1893310546875 1875.4644775390625)" style="opacity:0.9;animation-play-state:paused" ></circle>
<path id="path30" d="M 254.99634989187956 717.2494164847278
c 0 23.63884268035152 -5.783972145192393 6.789880344356288 -12.573852489548681 6.789880344356288
S 229.84864491278222 740.8882591650794 229.84864491278222 717.2494164847278
s 5.783972145192393 -6.789880344356288 12.573852489548681 -6.789880344356288
S 254.99634989187956 693.6105738043763 254.99634989187956 717.2494164847278
z" fill="none" stroke="none" style="animation-play-state:paused" ></path>


<circle cx="0" cy="0" r="2.601189035542892" fill="#05336e" opacity="0.9" transform="translate(251.9976348876953 729.8108520507812)" style="opacity:0.9;animation-play-state:paused" ></circle>
<path id="path31" d="M 760.0302328328632 118.38381343015368
c 0 25.33073972094199 -6.197946952996443 7.275850770908869 -13.473797723905312 7.275850770908869
S 733.0826373850525 143.71455315109566 733.0826373850525 118.38381343015368
s 6.197946952996443 -7.275850770908869 13.473797723905312 -7.275850770908869
S 760.0302328328632 93.05307370921169 760.0302328328632 118.38381343015368
z" fill="none" stroke="none" style="animation-play-state:paused" ></path>


<circle cx="0" cy="0" r="2.79697768429208" fill="#05336e" opacity="0.9" transform="translate(744.770751953125 125.99748229980469)" style="opacity:0.9;animation-play-state:paused" ></circle>
<path id="path32" d="M 1327.5487707910747 746.8061988175483
c 0 27.48317483528548 -6.724606608633681 7.894103410135192 -14.618710018768873 7.894103410135192
S 1298.3113507535368 774.2893736528338 1298.3113507535368 746.8061988175483
s 6.724606608633681 -7.894103410135192 14.618710018768873 -7.894103410135192
S 1327.5487707910747 719.3230239822628 1327.5487707910747 746.8061988175483
z" fill="none" stroke="none" style="animation-play-state:paused" ></path>


<circle cx="0" cy="0" r="2.7648219107035428" fill="#05336e" opacity="0.9" transform="translate(1316.61669921875 755.9384155273438)" style="opacity:0.9;animation-play-state:paused" ></circle>
<path id="path33" d="M 1557.3032854970133 280.3922794946378
c 0 22.11180327007846 -5.410334842678772 6.3512626414055156 -11.761597484084287 6.3512626414055156
S 1533.780090528845 302.50408276471626 1533.780090528845 280.3922794946378
s 5.410334842678772 -6.3512626414055156 11.761597484084287 -6.3512626414055156
S 1557.3032854970133 258.2804762245594 1557.3032854970133 280.3922794946378
z" fill="none" stroke="none" style="animation-play-state:paused" ></path>


<circle cx="0" cy="0" r="2.071599712837412" fill="#3068b0" opacity="0.9" transform="translate(1549.0230712890625 288.0783996582031)" style="opacity:0.9;animation-play-state:paused" ></circle>
<path id="path34" d="M 855.336690383414 89.532399409153
c 0 35.27575194606905 -8.631301008080724 10.132396835573024 -18.76369784365375 10.132396835573024
S 817.8092946961065 124.80815135522205 817.8092946961065 89.532399409153
s 8.631301008080724 -10.132396835573024 18.76369784365375 -10.132396835573024
S 855.336690383414 54.25664746308395 855.336690383414 89.532399409153
z" fill="none" stroke="none" style="animation-play-state:paused" ></path>


<circle cx="0" cy="0" r="2.3773889752762227" fill="#05336e" opacity="0.9" transform="translate(825.7388916015625 72.9301528930664)" style="opacity:0.9;animation-play-state:paused" ></circle>
<path id="path35" d="M 402.5690476872473 1357.7989192125794
c 0 35.434238357847185 -8.67007959819665 10.177919528317808 -18.84799912651446 10.177919528317808
S 364.87304943421833 1393.2331575704266 364.87304943421833 1357.7989192125794
s 8.67007959819665 -10.177919528317808 18.84799912651446 -10.177919528317808
S 402.5690476872473 1322.3646808547323 402.5690476872473 1357.7989192125794
z" fill="none" stroke="none" style="animation-play-state:paused" ></path>


<circle cx="0" cy="0" r="2.724821421699445" fill="#3068b0" opacity="0.9" transform="translate(364.8868408203125 1360.1495361328125)" style="opacity:0.9;animation-play-state:paused" ></circle>
<path id="path36" d="M 1515.257554011469 751.1949046273492
c 0 23.772959457763882 -5.8167879524315875 6.828403248506647 -12.645191200938235 6.828403248506647
S 1489.9671716095927 774.9678640851131 1489.9671716095927 751.1949046273492
s 5.8167879524315875 -6.828403248506647 12.645191200938235 -6.828403248506647
S 1515.257554011469 727.4219451695852 1515.257554011469 751.1949046273492
z" fill="none" stroke="none" style="animation-play-state:paused" ></path>


<circle cx="0" cy="0" r="2.4138953470155595" fill="#3068b0" opacity="0.9" transform="translate(1495.372314453125 740.0573120117188)" style="opacity:0.9;animation-play-state:paused" ></circle>
<path id="path37" d="M 1157.3234844273052 986.4173186351995
c 0 24.80524501690789 -6.069368461583845 7.124910802728862 -13.194279264312707 7.124910802728862
S 1130.93492589868 1011.2225636521074 1130.93492589868 986.4173186351995
s 6.069368461583845 -7.124910802728862 13.194279264312707 -7.124910802728862
S 1157.3234844273052 961.6120736182917 1157.3234844273052 986.4173186351995
z" fill="none" stroke="none" style="animation-play-state:paused" ></path>


<circle cx="0" cy="0" r="2.982102927820092" fill="#05336e" opacity="0.9" transform="translate(1131.20654296875 993.8111572265625)" style="opacity:0.9;animation-play-state:paused" ></circle>
<path id="path38" d="M 599.8633343819027 1710.9494507422824
c 0 20.315095908798675 -4.970714956408186 5.835187122740045 -10.80590207914823 5.835187122740045
S 578.2515302236062 1731.264546651081 578.2515302236062 1710.9494507422824
s 4.970714956408186 -5.835187122740045 10.80590207914823 -5.835187122740045
S 599.8633343819027 1690.6343548334837 599.8633343819027 1710.9494507422824
z" fill="none" stroke="none" style="animation-play-state:paused" ></path>


<circle cx="0" cy="0" r="3.7569613815126854" fill="#3068b0" opacity="0.9" transform="translate(599.7640991210938 1706.60791015625)" style="opacity:0.9;animation-play-state:paused" ></circle>
<path id="path39" d="M 1225.284339371187 1668.3784388324743
c 0 32.299473696863636 -7.903062713062378 9.27750840229062 -17.180571115352997 9.27750840229062
S 1190.923197140481 1700.677912529338 1190.923197140481 1668.3784388324743
s 7.903062713062378 -9.27750840229062 17.180571115352997 -9.27750840229062
S 1225.284339371187 1636.0789651356106 1225.284339371187 1668.3784388324743
z" fill="none" stroke="none" style="animation-play-state:paused" ></path>


<circle cx="0" cy="0" r="3.4688272239609304" fill="#3068b0" opacity="0.9" transform="translate(1225.2080078125 1673.3837890625)" style="opacity:0.9;animation-play-state:paused" ></circle>
<path id="path40" d="M 818.0892706892365 1446.323353519681
c 0 24.182373532525606 -5.916963736681796 6.946000908278632 -12.862964644960428 6.946000908278632
S 792.3633413993156 1470.5057270522066 792.3633413993156 1446.323353519681
s 5.916963736681796 -6.946000908278632 12.862964644960428 -6.946000908278632
S 818.0892706892365 1422.1409799871553 818.0892706892365 1446.323353519681
z" fill="none" stroke="none" style="animation-play-state:paused" ></path>


<circle cx="0" cy="0" r="3.7640677185961584" fill="#05336e" opacity="0.9" transform="translate(813.4420776367188 1434.3175048828125)" style="opacity:0.9;animation-play-state:paused" ></circle>
<path id="path41" d="M 428.58719545136375 1165.9041070543217
c 0 32.89630423131015 -8.049095716171632 9.448938449418872 -17.498034165590504 9.448938449418872
S 393.5911271201827 1198.8004112856318 393.5911271201827 1165.9041070543217
s 8.049095716171632 -9.448938449418872 17.498034165590504 -9.448938449418872
S 428.58719545136375 1133.0078028230116 428.58719545136375 1165.9041070543217
z" fill="none" stroke="none" style="animation-play-state:paused" ></path>


<circle cx="0" cy="0" r="3.4016763314237637" fill="#3068b0" opacity="0.9" transform="translate(403.1478576660156 1179.525146484375)" style="opacity:0.9;animation-play-state:paused" ></circle>
<path id="path42" d="M 1254.3110254823414 1519.9261420176797
c 0 26.16338069249504 -6.401678254546658 7.515013603163468 -13.916691857710127 7.515013603163468
S 1226.4776417669214 1546.0895227101748 1226.4776417669214 1519.9261420176797
s 6.401678254546658 -7.515013603163468 13.916691857710127 -7.515013603163468
S 1254.3110254823414 1493.7627613251846 1254.3110254823414 1519.9261420176797
z" fill="none" stroke="none" style="animation-play-state:paused" ></path>


<circle cx="0" cy="0" r="2.433571479858516" fill="#3068b0" opacity="0.9" transform="translate(1253.5211181640625 1531.033447265625)" style="opacity:0.9;animation-play-state:paused" ></circle>
<path id="path43" d="M 421.0065332271602 54.69620461185875
c 0 20.645178343868473 -5.051479807542285 5.929998034940944 -10.98147784248323 5.929998034940944
S 399.04357754219376 75.34138295572723 399.04357754219376 54.69620461185875
s 5.051479807542285 -5.929998034940944 10.98147784248323 -5.929998034940944
S 421.0065332271602 34.051026267990274 421.0065332271602 54.69620461185875
z" fill="none" stroke="none" style="animation-play-state:paused" ></path>


<circle cx="0" cy="0" r="3.067242341840083" fill="#05336e" opacity="0.9" transform="translate(406.2823181152344 47.161922454833984)" style="opacity:0.9;animation-play-state:paused" ></circle>
<path id="path44" d="M 1514.493048392892 160.94903713233518
c 0 32.955338000294375 -8.063540149008197 9.465894957531363 -17.529435106539562 9.465894957531363
S 1479.434178179813 193.90437513262955 1479.434178179813 160.94903713233518
s 8.063540149008197 -9.465894957531363 17.529435106539562 -9.465894957531363
S 1514.493048392892 127.9936991320408 1514.493048392892 160.94903713233518
z" fill="none" stroke="none" style="animation-play-state:paused" ></path>


<circle cx="0" cy="0" r="2.457106769774109" fill="#05336e" opacity="0.9" transform="translate(1486.926025390625 176.3892822265625)" style="opacity:0.9;animation-play-state:paused" ></circle>
<path id="path45" d="M 1058.0148379734692 1560.6928685253022
c 0 23.576330323638278 -5.7686765685497905 6.771924667428016 -12.540601235977807 6.771924667428016
S 1032.9336355015134 1584.2691988489405 1032.9336355015134 1560.6928685253022
s 5.7686765685497905 -6.771924667428016 12.540601235977807 -6.771924667428016
S 1058.0148379734692 1537.1165382016638 1058.0148379734692 1560.6928685253022
z" fill="none" stroke="none" style="animation-play-state:paused" ></path>


<circle cx="0" cy="0" r="3.221952018514646" fill="#05336e" opacity="0.9" transform="translate(1057.326171875 1570.6025390625)" style="opacity:0.9;animation-play-state:paused" ></circle>
<path id="path46" d="M 548.4238000484029 660.9839099084445
c 0 19.158855422069173 -4.687805050080755 5.503075493573061 -10.190880543653815 5.503075493573061
S 528.0420389610952 680.1427653305137 528.0420389610952 660.9839099084445
s 4.687805050080755 -5.503075493573061 10.190880543653815 -5.503075493573061
S 548.4238000484029 641.8250544863753 548.4238000484029 660.9839099084445
z" fill="none" stroke="none" style="animation-play-state:paused" ></path>


<circle cx="0" cy="0" r="3.2999128011701058" fill="#05336e" opacity="0.9" transform="translate(537.1813354492188 655.3233642578125)" style="opacity:0.9;animation-play-state:paused" ></circle>
<path id="path47" d="M 1525.491206967915 105.72056365363815
c 0 27.586802259395434 -6.749962254958457 7.923868734081667 -14.673830989040123 7.923868734081667
S 1496.1435449898347 133.30736591303358 1496.1435449898347 105.72056365363815
s 6.749962254958457 -7.923868734081667 14.673830989040123 -7.923868734081667
S 1525.491206967915 78.13376139424273 1525.491206967915 105.72056365363815
z" fill="none" stroke="none" style="animation-play-state:paused" ></path>


<circle cx="0" cy="0" r="2.823765726081539" fill="#05336e" opacity="0.9" transform="translate(1525.0130615234375 115.48269653320312)" style="opacity:0.9;animation-play-state:paused" ></circle>
<path id="path48" d="M 319.12307163375874 653.7878934959888
c 0 36.53476024230197 -8.939356229499419 10.494026878108013 -19.433383107607433 10.494026878108013
S 280.2563054185439 690.3226537382908 280.2563054185439 653.7878934959888
s 8.939356229499419 -10.494026878108013 19.433383107607433 -10.494026878108013
S 319.12307163375874 617.2531332536868 319.12307163375874 653.7878934959888
z" fill="none" stroke="none" style="animation-play-state:paused" ></path>


<circle cx="0" cy="0" r="2.2432502658635407" fill="#05336e" opacity="0.9" transform="translate(303.5108337402344 642.2598876953125)" style="opacity:0.9;animation-play-state:paused" ></circle>
<path id="path49" d="M 982.5756610249082 1563.5412445750849
c 0 19.848410097575552 -4.856525874938698 5.701139070580211 -10.55766494551891 5.701139070580211
S 961.4603311338703 1583.3896546726605 961.4603311338703 1563.5412445750849
s 4.856525874938698 -5.701139070580211 10.55766494551891 -5.701139070580211
S 982.5756610249082 1543.6928344775092 982.5756610249082 1563.5412445750849
z" fill="none" stroke="none" style="animation-play-state:paused" ></path>


<circle cx="0" cy="0" r="3.2342620115499923" fill="#05336e" opacity="0.9" transform="translate(972.3489379882812 1557.824462890625)" style="opacity:0.9;animation-play-state:paused" ></circle>
<path id="path50" d="M 1072.9416189451958 1503.5755115329428
c 0 30.229498542077515 -7.396579430508327 8.682941070596733 -16.07952050110506 8.682941070596733
S 1040.7825779429859 1533.8050100750202 1040.7825779429859 1503.5755115329428
s 7.396579430508327 -8.682941070596733 16.07952050110506 -8.682941070596733
S 1072.9416189451958 1473.3460129908653 1072.9416189451958 1503.5755115329428
z" fill="none" stroke="none" style="animation-play-state:paused" ></path>


<circle cx="0" cy="0" r="3.311219964183041" fill="#3068b0" opacity="0.9" transform="translate(1065.4710693359375 1489.923095703125)" style="opacity:0.9;animation-play-state:paused" ></circle>
<path id="path51" d="M 226.5896995088579 1083.3935221958425
c 0 19.38560472504677 -4.743286262511443 5.568205612513434 -10.311491875024876 5.568205612513434
S 205.96671575880816 1102.7791269208892 205.96671575880816 1083.3935221958425
s 4.743286262511443 -5.568205612513434 10.311491875024876 -5.568205612513434
S 226.5896995088579 1064.0079174707957 226.5896995088579 1083.3935221958425
z" fill="none" stroke="none" style="animation-play-state:paused" ></path>


<circle cx="0" cy="0" r="2.068009066176398" fill="#05336e" opacity="0.9" transform="translate(225.01768493652344 1073.2269287109375)" style="opacity:0.9;animation-play-state:paused" ></circle>
<path id="path52" d="M 348.3145404256947 977.3137354534349
c 0 27.60261684879254 -6.753831782151366 7.928411222525517 -14.682243004676883 7.928411222525517
S 318.95005441634095 1004.9163523022274 318.95005441634095 977.3137354534349
s 6.753831782151366 -7.928411222525517 14.682243004676883 -7.928411222525517
S 348.3145404256947 949.7111186046424 348.3145404256947 977.3137354534349
z" fill="none" stroke="none" style="animation-play-state:paused" ></path>


<circle cx="0" cy="0" r="2.34354487673839" fill="#05336e" opacity="0.9" transform="translate(346.86962890625 963.8181762695312)" style="opacity:0.9;animation-play-state:paused" ></circle>
<path id="path53" d="M 1126.3932894942272 1460.9806906675922
c 0 28.73033267124196 -7.029762249346436 8.25232959705886 -15.282091846405297 8.25232959705886
S 1095.8291058014165 1489.7110233388341 1095.8291058014165 1460.9806906675922
s 7.029762249346436 -8.25232959705886 15.282091846405297 -8.25232959705886
S 1126.3932894942272 1432.2503579963502 1126.3932894942272 1460.9806906675922
z" fill="none" stroke="none" style="animation-play-state:paused" ></path>


<circle cx="0" cy="0" r="3.7827935465740747" fill="#05336e" opacity="0.9" transform="translate(1100.777587890625 1446.3204345703125)" style="opacity:0.9;animation-play-state:paused" ></circle>
<path id="path54" d="M 1446.7440789688446 177.28192647613722
c 0 36.333322666416635 -8.89006831199556 10.436167148864353 -19.326235460859913 10.436167148864353
S 1408.091608047125 213.61524914255386 1408.091608047125 177.28192647613722
s 8.89006831199556 -10.436167148864353 19.326235460859913 -10.436167148864353
S 1446.7440789688446 140.94860380972057 1446.7440789688446 177.28192647613722
z" fill="none" stroke="none" style="animation-play-state:paused" ></path>


<circle cx="0" cy="0" r="3.011667234781438" fill="#3068b0" opacity="0.9" transform="translate(1446.6820068359375 172.43505859375)" style="opacity:0.9;animation-play-state:paused" ></circle>
<path id="path55" d="M 1172.561553795732 1600.288112573125
c 0 22.539866688228855 -5.5150737641411025 6.474217027469991 -11.989290791611094 6.474217027469991
S 1148.58297221251 1622.827979261354 1148.58297221251 1600.288112573125
s 5.5150737641411025 -6.474217027469991 11.989290791611094 -6.474217027469991
S 1172.561553795732 1577.7482458848963 1172.561553795732 1600.288112573125
z" fill="none" stroke="none" style="animation-play-state:paused" ></path>


<circle cx="0" cy="0" r="3.382737902971208" fill="#05336e" opacity="0.9" transform="translate(1148.5836181640625 1600.444580078125)" style="opacity:0.9;animation-play-state:paused" ></circle>
<path id="path56" d="M 1005.6493708351395 708.3856109893268
c 0 19.0661672011087 -4.665126017292554 5.476452281169521 -10.141578298462075 5.476452281169521
S 985.3662142382154 727.4517781904354 985.3662142382154 708.3856109893268
s 4.665126017292554 -5.476452281169521 10.141578298462075 -5.476452281169521
S 1005.6493708351395 689.3194437882181 1005.6493708351395 708.3856109893268
z" fill="none" stroke="none" style="animation-play-state:paused" ></path>


<circle cx="0" cy="0" r="2.1129039241730068" fill="#05336e" opacity="0.9" transform="translate(996.760498046875 702.6871948242188)" style="opacity:0.9;animation-play-state:paused" ></circle>
<path id="path57" d="M 1463.40587604693 1323.240235796723
c 0 27.344939208257514 -6.690782997765136 7.8543974321590735 -14.545180429924208 7.8543974321590735
S 1434.3155151870817 1350.5851750049806 1434.3155151870817 1323.240235796723
s 6.690782997765136 -7.8543974321590735 14.545180429924208 -7.8543974321590735
S 1463.40587604693 1295.8952965884655 1463.40587604693 1323.240235796723
z" fill="none" stroke="none" style="animation-play-state:paused" ></path>


<circle cx="0" cy="0" r="3.4591929938827763" fill="#3068b0" opacity="0.9" transform="translate(1462.913330078125 1313.4332275390625)" style="opacity:0.9;animation-play-state:paused" ></circle>
<path id="path58" d="M 1341.7045805398047 906.251986223271
c 0 27.358379408428917 -6.694071557381543 7.858257915187029 -14.552329472568573 7.858257915187029
S 1312.5999215946676 933.6103656317 1312.5999215946676 906.251986223271
s 6.694071557381543 -7.858257915187029 14.552329472568573 -7.858257915187029
S 1341.7045805398047 878.8936068148421 1341.7045805398047 906.251986223271
z" fill="none" stroke="none" style="animation-play-state:paused" ></path>


<circle cx="0" cy="0" r="2.023953520331969" fill="#3068b0" opacity="0.9" transform="translate(1337.983154296875 891.7877807617188)" style="opacity:0.9;animation-play-state:paused" ></circle>
<path id="path59" d="M 96.93974680047945 296.8350111571235
c 0 37.37633415174032 -9.145273249893908 10.735755554223283 -19.881028804117193 10.735755554223283
S 57.17768919224507 334.2113453088638 57.17768919224507 296.8350111571235
s 9.145273249893908 -10.735755554223283 19.881028804117193 -10.735755554223283
S 96.93974680047945 259.4586770053832 96.93974680047945 296.8350111571235
z" fill="none" stroke="none" style="animation-play-state:paused" ></path>


<circle cx="0" cy="0" r="3.2204020007122383" fill="#3068b0" opacity="0.9" transform="translate(57.43438720703125 306.0684814453125)" style="opacity:0.9;animation-play-state:paused" ></circle>
<path id="path60" d="M 328.5242235001268 721.8479306274457
c 0 29.929533343870535 -7.323183690521513 8.596780854090474 -15.919964544611986 8.596780854090474
S 296.6842944109028 751.7774639713163 296.6842944109028 721.8479306274457
s 7.323183690521513 -8.596780854090474 15.919964544611986 -8.596780854090474
S 328.5242235001268 691.9183972835752 328.5242235001268 721.8479306274457
z" fill="none" stroke="none" style="animation-play-state:paused" ></path>


<circle cx="0" cy="0" r="3.7761037725456723" fill="#05336e" opacity="0.9" transform="translate(328.3517150878906 728.711669921875)" style="opacity:0.9;animation-play-state:paused" ></circle>
<path id="path61" d="M 1521.1726834993926 664.4269152154212
c 0 22.228443058488097 -5.438874365374747 6.384765559352965 -11.823639924727711 6.384765559352965
S 1497.525403649937 686.6553582739093 1497.525403649937 664.4269152154212
s 5.438874365374747 -6.384765559352965 11.823639924727711 -6.384765559352965
S 1521.1726834993926 642.1984721569331 1521.1726834993926 664.4269152154212
z" fill="none" stroke="none" style="animation-play-state:paused" ></path>


<circle cx="0" cy="0" r="2.490316393647244" fill="#3068b0" opacity="0.9" transform="translate(1497.876953125 672.0381469726562)" style="opacity:0.9;animation-play-state:paused" ></circle>
<path id="path62" d="M 439.2218125633793 1747.5110794245566
c 0 32.587437344483774 -7.973521903437519 9.360221364904914 -17.333743268342435 9.360221364904914
S 404.55432602669435 1780.0985167690403 404.55432602669435 1747.5110794245566
s 7.973521903437519 -9.360221364904914 17.333743268342435 -9.360221364904914
S 439.2218125633793 1714.9236420800728 439.2218125633793 1747.5110794245566
z" fill="none" stroke="none" style="animation-play-state:paused" ></path>


<circle cx="0" cy="0" r="3.6515836006069518" fill="#05336e" opacity="0.9" transform="translate(428.9753723144531 1734.6778564453125)" style="opacity:0.9;animation-play-state:paused" ></circle>
<path id="path63" d="M 210.14179836752655 1933.3087408755537
c 0 25.06050798730464 -6.131826422425602 7.1982310176300555 -13.330057440055658 7.1982310176300555
S 183.4816834874152 1958.3692488628583 183.4816834874152 1933.3087408755537
s 6.131826422425602 -7.1982310176300555 13.330057440055658 -7.1982310176300555
S 210.14179836752655 1908.248232888249 210.14179836752655 1933.3087408755537
z" fill="none" stroke="none" style="animation-play-state:paused" ></path>


<circle cx="0" cy="0" r="2.475919556398995" fill="#05336e" opacity="0.9" transform="translate(200.95233154296875 1942.1575927734375)" style="opacity:0.9;animation-play-state:paused" ></circle>
<path id="path64" d="M 553.3942542835825 1476.9768497964694
c 0 22.992696725900327 -5.625872603145824 6.604285229779881 -12.230157832925705 6.604285229779881
S 528.9339386177312 1499.9695465223697 528.9339386177312 1476.9768497964694
s 5.625872603145824 -6.604285229779881 12.230157832925705 -6.604285229779881
S 553.3942542835825 1453.9841530705692 553.3942542835825 1476.9768497964694
z" fill="none" stroke="none" style="animation-play-state:paused" ></path>


<circle cx="0" cy="0" r="3.517674284629288" fill="#3068b0" opacity="0.9" transform="translate(529.4347534179688 1468.1754150390625)" style="opacity:0.9;animation-play-state:paused" ></circle>
<path id="path65" d="M 1455.1852976539258 566.191241295501
c 0 22.449323591333247 -5.492919602134729 6.448209967723379 -11.94112956985811 6.448209967723379
S 1431.3030385142097 588.6405648868342 1431.3030385142097 566.191241295501
s 5.492919602134729 -6.448209967723379 11.94112956985811 -6.448209967723379
S 1455.1852976539258 543.7419177041677 1455.1852976539258 566.191241295501
z" fill="none" stroke="none" style="animation-play-state:paused" ></path>


<circle cx="0" cy="0" r="3.1758561093963404" fill="#3068b0" opacity="0.9" transform="translate(1453.6378173828125 554.6578979492188)" style="opacity:0.9;animation-play-state:paused" ></circle>
<path id="path66" d="M 1527.6696268727399 217.78940585576152
c 0 24.10829064022937 -5.898837071545484 6.924721779640351 -12.823558851185835 6.924721779640351
S 1502.022509170368 241.89769649599089 1502.022509170368 217.78940585576152
s 5.898837071545484 -6.924721779640351 12.823558851185835 -6.924721779640351
S 1527.6696268727399 193.68111521553215 1527.6696268727399 217.78940585576152
z" fill="none" stroke="none" style="animation-play-state:paused" ></path>


<circle cx="0" cy="0" r="2.412491400431838" fill="#05336e" opacity="0.9" transform="translate(1514.292236328125 224.7500457763672)" style="opacity:0.9;animation-play-state:paused" ></circle>
<path id="path67" d="M 963.4829707706247 1673.7621945214137
c 0 27.23371999745923 -6.6635697866123635 7.8224514886319065 -14.48602127524427 7.8224514886319065
S 934.5109282201361 1700.995914518873 934.5109282201361 1673.7621945214137
s 6.6635697866123635 -7.8224514886319065 14.48602127524427 -7.8224514886319065
S 963.4829707706247 1646.5284745239544 963.4829707706247 1673.7621945214137
z" fill="none" stroke="none" style="animation-play-state:paused" ></path>


<circle cx="0" cy="0" r="2.674259604055274" fill="#3068b0" opacity="0.9" transform="translate(953.349853515625 1683.274169921875)" style="opacity:0.9;animation-play-state:paused" ></circle>
<path id="path68" d="M 1499.823712080758 1223.8944986491192
c 0 31.33652540486005 -7.66744770544448 9.000916871608739 -16.668364577053218 9.000916871608739
S 1466.4869829266518 1255.2310240539794 1466.4869829266518 1223.8944986491192
s 7.66744770544448 -9.000916871608739 16.668364577053218 -9.000916871608739
S 1499.823712080758 1192.557973244259 1499.823712080758 1223.8944986491192
z" fill="none" stroke="none" style="animation-play-state:paused" ></path>


<circle cx="0" cy="0" r="2.3677417038410593" fill="#3068b0" opacity="0.9" transform="translate(1474.5186767578125 1237.798828125)" style="opacity:0.9;animation-play-state:paused" ></circle>
<path id="path69" d="M 1246.2062898278716 1613.6060094958948
c 0 36.409321610334956 -8.908663798273444 10.457996632755785 -19.36666043102923 10.457996632755785
S 1207.4729689658132 1650.0153311062297 1207.4729689658132 1613.6060094958948
s 8.908663798273444 -10.457996632755785 19.36666043102923 -10.457996632755785
S 1246.2062898278716 1577.1966878855599 1246.2062898278716 1613.6060094958948
z" fill="none" stroke="none" style="animation-play-state:paused" ></path>


<circle cx="0" cy="0" r="3.3047757875985893" fill="#05336e" opacity="0.9" transform="translate(1208.1826171875 1627.027099609375)" style="opacity:0.9;animation-play-state:paused" ></circle>
<path id="path70" d="M 1080.2575542636341 1752.2687378607714
c 0 32.17707545108455 -7.873114206116432 9.242351459354072 -17.115465665470502 9.242351459354072
S 1046.026622932693 1784.445813311856 1046.026622932693 1752.2687378607714
s 7.873114206116432 -9.242351459354072 17.115465665470502 -9.242351459354072
S 1080.2575542636341 1720.0916624096867 1080.2575542636341 1752.2687378607714
z" fill="none" stroke="none" style="animation-play-state:paused" ></path>


<circle cx="0" cy="0" r="2.9102867528081" fill="#05336e" opacity="0.9" transform="translate(1080.1651611328125 1757.7174072265625)" style="opacity:0.9;animation-play-state:paused" ></circle>
<path id="path71" d="M 1528.4083839280527 1016.6488515139569
c 0 35.21653930806149 -8.616812809419299 10.115388950187874 -18.732201759607175 10.115388950187874
S 1490.9439804088381 1051.8653908220183 1490.9439804088381 1016.6488515139569
s 8.616812809419299 -10.115388950187874 18.732201759607175 -10.115388950187874
S 1528.4083839280527 981.4323122058954 1528.4083839280527 1016.6488515139569
z" fill="none" stroke="none" style="animation-play-state:paused" ></path>


<circle cx="0" cy="0" r="2.739588362135769" fill="#05336e" opacity="0.9" transform="translate(1492.184814453125 1001.0189208984375)" style="opacity:0.9;animation-play-state:paused" ></circle>
<path id="path72" d="M 1308.6901343762677 1816.063689896691
c 0 18.811833463302786 -4.602895421871958 5.403398973501864 -10.006294395373823 5.403398973501864
S 1288.6775455855202 1834.8755233599936 1288.6775455855202 1816.063689896691
s 4.602895421871958 -5.403398973501864 10.006294395373823 -5.403398973501864
S 1308.6901343762677 1797.2518564333882 1308.6901343762677 1816.063689896691
z" fill="none" stroke="none" style="animation-play-state:paused" ></path>


<circle cx="0" cy="0" r="2.2977241243455255" fill="#3068b0" opacity="0.9" transform="translate(1293.182373046875 1824.683837890625)" style="opacity:0.9;animation-play-state:paused" ></circle>
<path id="path73" d="M 1521.1278230580547 272.9637261200882
c 0 20.35800105568894 -4.9812130242643144 5.847510941527674 -10.828723965791989 5.847510941527674
S 1499.4703751264706 293.32172717577714 1499.4703751264706 272.9637261200882
s 4.9812130242643144 -5.847510941527674 10.828723965791989 -5.847510941527674
S 1521.1278230580547 252.60572506439928 1521.1278230580547 272.9637261200882
z" fill="none" stroke="none" style="animation-play-state:paused" ></path>


<circle cx="0" cy="0" r="2.773531474809322" fill="#3068b0" opacity="0.9" transform="translate(1520.5479736328125 281.4566955566406)" style="opacity:0.9;animation-play-state:paused" ></circle>
<path id="path74" d="M 1573.8083912743004 280.84978704345065
c 0 24.85932892700054 -6.082601758734174 7.140445542861857 -13.223047301596031 7.140445542861857
S 1547.3622966711082 305.7091159704512 1547.3622966711082 280.84978704345065
s 6.082601758734174 -7.140445542861857 13.223047301596031 -7.140445542861857
S 1573.8083912743004 255.9904581164501 1573.8083912743004 280.84978704345065
z" fill="none" stroke="none" style="animation-play-state:paused" ></path>


<circle cx="0" cy="0" r="3.4831208366605604" fill="#3068b0" opacity="0.9" transform="translate(1559.135009765625 288.2203063964844)" style="opacity:0.9;animation-play-state:paused" ></circle>
<path id="path75" d="M 1220.3411401601436 1734.749152542057
c 0 29.942978888106452 -7.326473557728174 8.600642872115683 -15.927116429843856 8.600642872115683
S 1188.4869073004559 1764.6921314301633 1188.4869073004559 1734.749152542057
s 7.326473557728174 -8.600642872115683 15.927116429843856 -8.600642872115683
S 1220.3411401601436 1704.8061736539505 1220.3411401601436 1734.749152542057
z" fill="none" stroke="none" style="animation-play-state:paused" ></path>


<circle cx="0" cy="0" r="2.096266573697468" fill="#05336e" opacity="0.9" transform="translate(1216.6717529296875 1718.810546875)" style="opacity:0.9;animation-play-state:paused" ></circle>
<path id="path76" d="M 114.83090973199313 1516.635730174743
c 0 32.51816155632845 -7.956571444633556 9.340323000222002 -17.296894444855557 9.340323000222002
S 80.23712084228202 1549.1538917310716 80.23712084228202 1516.635730174743
s 7.956571444633556 -9.340323000222002 17.296894444855557 -9.340323000222002
S 114.83090973199313 1484.1175686184145 114.83090973199313 1516.635730174743
z" fill="none" stroke="none" style="animation-play-state:paused" ></path>


<circle cx="0" cy="0" r="2.725572616429031" fill="#05336e" opacity="0.9" transform="translate(89.28112030029297 1530.4483642578125)" style="opacity:0.9;animation-play-state:paused" ></circle>
<path id="path77" d="M 1277.9604985717763 300.330126502746
c 0 28.107939413440146 -6.877474537331099 8.073557065562595 -14.951031602893694 8.073557065562595
S 1248.058435365989 328.43806591618613 1248.058435365989 300.330126502746
s 6.877474537331099 -8.073557065562595 14.951031602893694 -8.073557065562595
S 1277.9604985717763 272.22218708930586 1277.9604985717763 300.330126502746
z" fill="none" stroke="none" style="animation-play-state:paused" ></path>


<circle cx="0" cy="0" r="3.7785813847307717" fill="#05336e" opacity="0.9" transform="translate(1253.2135009765625 286.19842529296875)" style="opacity:0.9;animation-play-state:paused" ></circle>
<path id="path78" d="M 1544.1701535897632 379.0671799954713
c 0 23.635205020991304 -5.783082079604254 6.788835484752822 -12.571917564357076 6.788835484752822
S 1519.026318461049 402.7023850164626 1519.026318461049 379.0671799954713
s 5.783082079604254 -6.788835484752822 12.571917564357076 -6.788835484752822
S 1544.1701535897632 355.43197497448 1544.1701535897632 379.0671799954713
z" fill="none" stroke="none" style="animation-play-state:paused" ></path>


<circle cx="0" cy="0" r="3.3334279892849845" fill="#05336e" opacity="0.9" transform="translate(1519.44287109375 387.4786376953125)" style="opacity:0.9;animation-play-state:paused" ></circle>
<path id="path79" d="M 1613.2809454858434 550.4130456929374
c 0 34.473787629773454 -8.435075696646695 9.902045383020036 -18.33712107966673 9.902045383020036
S 1576.60670332651 584.8868333227109 1576.60670332651 550.4130456929374
s 8.435075696646695 -9.902045383020036 18.33712107966673 -9.902045383020036
S 1613.2809454858434 515.939258063164 1613.2809454858434 550.4130456929374
z" fill="none" stroke="none" style="animation-play-state:paused" ></path>


<circle cx="0" cy="0" r="2.5224666549607657" fill="#05336e" opacity="0.9" transform="translate(1576.7803955078125 557.8798217773438)" style="opacity:0.9;animation-play-state:paused" ></circle>
<path id="path80" d="M 167.8381893115053 457.75819749254583
c 0 31.742583424379777 -7.76680232724186 9.117550558066531 -16.88435288530839 9.117550558066531
S 134.06948354088848 489.50078091692563 134.06948354088848 457.75819749254583
s 7.76680232724186 -9.117550558066531 16.88435288530839 -9.117550558066531
S 167.8381893115053 426.01561406816603 167.8381893115053 457.75819749254583
z" fill="none" stroke="none" style="animation-play-state:paused" ></path>


<circle cx="0" cy="0" r="2.5334923805195335" fill="#3068b0" opacity="0.9" transform="translate(134.22842407226562 464.6141052246094)" style="opacity:0.9;animation-play-state:paused" ></circle></g></svg>