<svg width="204" height="174" viewBox="0 0 204 174" fill="none" xmlns="http://www.w3.org/2000/svg">
<g clip-path="url(#clip0_36_249)">
<g clip-path="url(#clip1_36_249)">
<path d="M204 12.8389H0V120.449H204V12.8389Z" fill="#EE3524"/>
<path d="M130.945 44.5214V46.5016H150.58C151.879 46.5016 153.828 46.5016 155.127 47.6155C156.427 48.7294 156.427 50.4 156.427 51.5139V68.3454C156.427 69.4593 156.427 71.1303 155.127 72.2439C153.828 73.3578 151.879 73.3578 150.58 73.3578H141.123C139.463 73.3578 137.369 73.3578 136.575 71.8109C135.781 70.2637 136.936 68.8406 137.874 67.7267L150.651 53.1849H131.017L123.148 62.1576C121.849 63.6426 120.694 64.9422 120.694 66.6129C120.694 68.2835 121.777 69.5212 123.148 71.1303L125.097 73.3578C127.046 75.5855 128.996 77.8752 131.594 78.9891C134.193 80.103 137.297 80.103 141.556 80.103H150.146C155.055 80.103 162.418 80.103 167.327 75.895C172.235 71.6871 172.235 65.499 172.235 63.2712V56.5263C172.235 54.2985 172.235 48.1107 167.327 43.9027C162.418 39.6948 155.055 39.6948 150.146 39.6948H136.575C135.276 39.6948 133.615 39.6948 132.316 40.8087C130.945 41.9844 130.945 43.4075 130.945 44.5214Z" fill="white"/>
<path d="M107.414 53.1841H127.049L103.516 80.1022H83.8809L107.414 53.1841Z" fill="white"/>
<path d="M30.8953 57.9488C30.8953 56.8352 30.8953 55.4119 32.1946 54.298C33.4942 53.1841 35.1542 53.1841 36.4535 53.1841H69.2985C73.5577 53.1841 76.6616 53.1841 79.2604 54.298C81.8592 55.4119 83.8082 57.6396 85.8295 59.929L87.7786 62.1568C89.15 63.7658 90.2329 64.9413 90.2329 66.6123C90.2329 68.283 89.0778 69.5826 87.7786 71.1295L79.9102 80.1022H60.3476L73.1247 65.4984C74.1353 64.3845 75.2178 62.9612 74.4239 61.4143C73.63 59.8671 71.4642 59.8671 69.8038 59.8671H54.5005V93.5304H38.7637V59.929H30.8953V57.9488Z" fill="white"/>
<path d="M30.6079 135.362H34.867V146.006H49.0156V135.362H53.2745V160.857H49.0156V149.224H34.867V160.857H30.6079V135.362Z" fill="#ED1C29"/>
<path d="M61.2876 135.361H65.5465V152.688L65.402 155.844H65.6187C66.6294 154.111 67.2069 153.307 68.2895 151.822L80.2004 135.3H84.9646V160.795H80.7057V143.406L80.8502 140.25H80.6335C79.5506 142.23 78.8289 143.035 77.9628 144.272L66.0518 160.795H61.2876V135.361Z" fill="#ED1C29"/>
<path d="M92.9077 135.361H97.167V152.688L97.0225 155.844H97.2392C98.2498 154.111 98.8271 153.307 99.9099 151.822L111.821 135.3H116.585V160.795H112.326V143.406L112.471 140.25H112.254C111.171 142.23 110.449 143.035 109.583 144.272L97.6723 160.795H92.9077V135.361Z" fill="#ED1C29"/>
<path d="M133.764 135.362H138.24L150.729 160.857H146.108L143.077 154.422H128.567L125.535 160.857H121.06L133.764 135.362ZM135.858 138.766L129.939 151.389H141.705L135.858 138.766Z" fill="#ED1C29"/>
<path d="M175.487 139.57C173.61 138.642 171.516 138.147 169.351 138.147C166.752 138.147 164.081 138.827 162.06 140.189C159.678 141.798 157.945 144.521 157.945 148.048C157.945 151.142 159.245 153.37 160.761 154.793C162.782 156.835 165.742 157.949 169.784 157.949C171.228 157.949 173.249 157.701 175.631 156.773L175.92 160.238C173.465 161.043 171.444 161.166 169.712 161.166C165.742 161.166 161.122 160.486 157.585 157.392C155.347 155.412 153.542 152.132 153.542 147.986C153.542 145.325 154.336 140.869 159.028 137.714C162.06 135.734 165.886 134.929 169.351 134.929C172.599 134.929 174.476 135.486 175.776 136.043L175.487 139.57Z" fill="#ED1C29"/>
</g>
</g>
<defs>
<clipPath id="clip0_36_249">
<rect width="204" height="174" fill="white"/>
</clipPath>
<clipPath id="clip1_36_249">
<rect width="204" height="174" fill="white"/>
</clipPath>
</defs>
</svg>
